<svg width="38" height="38" viewBox="0 0 38 38" fill="none" xmlns="http://www.w3.org/2000/svg">
<path fill-rule="evenodd" clip-rule="evenodd" d="M2.08334 19.0004C2.08392 10.93 7.78533 3.98377 15.7008 2.40983C23.6163 0.835888 31.5414 5.07257 34.6294 12.5289C37.7173 19.9852 35.1082 28.5846 28.3976 33.0679C21.687 37.5512 12.7439 36.6699 7.0375 30.9629C3.86509 27.7902 2.08301 23.4872 2.08334 19.0004Z" fill="#7B16FF" stroke="#7B16FF" stroke-width="2.625" stroke-linecap="round" stroke-linejoin="round"/>
<path d="M12.6563 17.6882C11.9314 17.6882 11.3438 18.2758 11.3438 19.0007C11.3438 19.7256 11.9314 20.3132 12.6563 20.3132V17.6882ZM19 20.3132C19.7249 20.3132 20.3125 19.7256 20.3125 19.0007C20.3125 18.2758 19.7249 17.6882 19 17.6882V20.3132ZM19 17.6882C18.2751 17.6882 17.6875 18.2758 17.6875 19.0007C17.6875 19.7256 18.2751 20.3132 19 20.3132V17.6882ZM25.3438 20.3132C26.0686 20.3132 26.6563 19.7256 26.6563 19.0007C26.6563 18.2758 26.0686 17.6882 25.3438 17.6882V20.3132ZM20.3125 19.0007C20.3125 18.2758 19.7249 17.6882 19 17.6882C18.2751 17.6882 17.6875 18.2758 17.6875 19.0007H20.3125ZM17.6875 25.3444C17.6875 26.0693 18.2751 26.6569 19 26.6569C19.7249 26.6569 20.3125 26.0693 20.3125 25.3444H17.6875ZM17.6875 19.0007C17.6875 19.7256 18.2751 20.3132 19 20.3132C19.7249 20.3132 20.3125 19.7256 20.3125 19.0007H17.6875ZM20.3125 12.657C20.3125 11.9321 19.7249 11.3445 19 11.3445C18.2751 11.3445 17.6875 11.9321 17.6875 12.657H20.3125ZM12.6563 20.3132H19V17.6882H12.6563V20.3132ZM19 20.3132H25.3438V17.6882H19V20.3132ZM17.6875 19.0007V25.3444H20.3125V19.0007H17.6875ZM20.3125 19.0007V12.657H17.6875V19.0007H20.3125Z" fill="white"/>
</svg>
