<svg width="24" height="21" viewBox="0 0 24 21" fill="none" xmlns="http://www.w3.org/2000/svg">
<path fill-rule="evenodd" clip-rule="evenodd" d="M1 13.8413V11.2301C1.02889 10.0496 2.0085 9.11553 3.18907 9.14284H4.08614C4.85711 6.75781 7.05485 5.1234 9.56086 5.07141H14.1534C16.6594 5.1234 18.8572 6.75781 19.6281 9.14284C19.8755 9.8527 20.0012 10.5992 20 11.3509V13.7205C20.1153 17.0674 17.5 19.8763 14.1534 20H9.56086C7.05485 19.948 4.85711 18.3136 4.08614 15.9286H3.18907C2.0085 15.9559 1.02889 15.0218 1 13.8413Z" stroke="#3B3A3A" stroke-width="1.5" stroke-linecap="round" stroke-linejoin="round"/>
<path fill-rule="evenodd" clip-rule="evenodd" d="M14.5714 11.1786C14.5714 12.6776 13.3562 13.8929 11.8571 13.8929C10.3581 13.8929 9.14285 12.6776 9.14285 11.1786C9.14285 9.67952 10.3581 8.46429 11.8571 8.46429C13.3562 8.46429 14.5714 9.67952 14.5714 11.1786Z" stroke="#3B3A3A" stroke-width="1.5" stroke-linecap="round" stroke-linejoin="round"/>
<path d="M12.6071 1C12.6071 0.585786 12.2713 0.25 11.8571 0.25C11.4429 0.25 11.1071 0.585786 11.1071 1H12.6071ZM11.1071 5.07143C11.1071 5.48564 11.4429 5.82143 11.8571 5.82143C12.2713 5.82143 12.6071 5.48564 12.6071 5.07143H11.1071ZM3.37788 16.1753C3.51416 16.5665 3.94173 16.7731 4.33288 16.6368C4.72404 16.5005 4.93066 16.073 4.79438 15.6818L3.37788 16.1753ZM3.71428 13.7205L4.46428 13.7217V13.7205H3.71428ZM3.71428 11.3509H4.46428L4.46427 11.3498L3.71428 11.3509ZM4.79438 9.38961C4.93066 8.99845 4.72404 8.57089 4.33288 8.43461C3.94173 8.29833 3.51416 8.50495 3.37788 8.89611L4.79438 9.38961ZM19.6281 8.39278C19.2139 8.39278 18.8781 8.72857 18.8781 9.14278C18.8781 9.55699 19.2139 9.89278 19.6281 9.89278V8.39278ZM20.5252 9.14278V9.89278C20.531 9.89278 20.5368 9.89271 20.5425 9.89258L20.5252 9.14278ZM22.7143 11.2301H23.4643C23.4643 11.2239 23.4642 11.2178 23.464 11.2117L22.7143 11.2301ZM22.7143 13.8412L23.464 13.8596C23.4642 13.8534 23.4643 13.8473 23.4643 13.8412H22.7143ZM20.5252 15.9285L20.5425 15.1787C20.5368 15.1786 20.531 15.1785 20.5252 15.1785V15.9285ZM19.6281 15.1785C19.2139 15.1785 18.8781 15.5143 18.8781 15.9285C18.8781 16.3427 19.2139 16.6785 19.6281 16.6785V15.1785ZM9.14281 15.8571C8.7286 15.8571 8.39281 16.1929 8.39281 16.6071C8.39281 17.0214 8.7286 17.3571 9.14281 17.3571V15.8571ZM14.5714 17.3571C14.9856 17.3571 15.3214 17.0214 15.3214 16.6071C15.3214 16.1929 14.9856 15.8571 14.5714 15.8571V17.3571ZM11.1071 1V5.07143H12.6071V1H11.1071ZM4.79438 15.6818C4.57484 15.0517 4.46323 14.389 4.46427 13.7217L2.96428 13.7193C2.96297 14.5554 3.10281 15.3858 3.37788 16.1753L4.79438 15.6818ZM4.46428 13.7205V11.3509H2.96428V13.7205H4.46428ZM4.46427 11.3498C4.46323 10.6825 4.57484 10.0198 4.79438 9.38961L3.37788 8.89611C3.10281 9.68567 2.96297 10.516 2.96428 11.3521L4.46427 11.3498ZM19.6281 9.89278H20.5252V8.39278H19.6281V9.89278ZM20.5425 9.89258C21.3094 9.87484 21.9457 10.4816 21.9645 11.2484L23.464 11.2117C23.425 9.61748 22.1021 8.3561 20.5078 8.39298L20.5425 9.89258ZM21.9643 11.2301V13.8412H23.4643V11.2301H21.9643ZM21.9645 13.8229C21.9457 14.5897 21.3094 15.1964 20.5425 15.1787L20.5078 16.6783C22.1021 16.7152 23.425 15.4538 23.464 13.8596L21.9645 13.8229ZM20.5252 15.1785H19.6281V16.6785H20.5252V15.1785ZM9.14281 17.3571H14.5714V15.8571H9.14281V17.3571Z" fill="#3B3A3A"/>
</svg>
