<svg width="23" height="27" viewBox="0 0 23 27" fill="none" xmlns="http://www.w3.org/2000/svg">
<path fill-rule="evenodd" clip-rule="evenodd" d="M1.29166 10.5834V19.3334C1.29166 22.5551 3.90333 25.1667 7.12499 25.1667H15.875C19.0967 25.1667 21.7083 22.5551 21.7083 19.3334V10.5834C21.7083 7.36173 19.0967 4.75006 15.875 4.75006H7.12499C3.90333 4.75006 1.29166 7.36173 1.29166 10.5834Z" stroke="black" stroke-width="2.1875" stroke-linecap="round" stroke-linejoin="round"/>
<path d="M14.7812 6.20834C14.7812 6.81241 15.2709 7.30209 15.875 7.30209C16.4791 7.30209 16.9687 6.81241 16.9687 6.20834H14.7812ZM16.9687 1.83334C16.9687 1.22928 16.4791 0.739594 15.875 0.739594C15.2709 0.739594 14.7812 1.22928 14.7812 1.83334H16.9687ZM6.03125 6.20834C6.03125 6.81241 6.52094 7.30209 7.125 7.30209C7.72906 7.30209 8.21875 6.81241 8.21875 6.20834H6.03125ZM8.21875 1.83334C8.21875 1.22928 7.72906 0.739594 7.125 0.739594C6.52094 0.739594 6.03125 1.22928 6.03125 1.83334H8.21875ZM16.9687 6.20834V1.83334H14.7812V6.20834H16.9687ZM8.21875 6.20834V1.83334H6.03125V6.20834H8.21875Z" fill="black"/>
<line x1="1" y1="11" x2="22" y2="11" stroke="black" stroke-width="2"/>
</svg>
