<svg width="21" height="24" viewBox="0 0 21 24" fill="none" xmlns="http://www.w3.org/2000/svg">
<path fill-rule="evenodd" clip-rule="evenodd" d="M1 5.94726C1.13995 7.91963 1.82474 9.81442 2.97809 11.4206C3.35407 11.8971 3.80512 12.3092 4.31353 12.6408C4.83247 12.937 5.3976 13.1437 5.98521 13.2522C7.86816 13.5029 9.78288 13.1777 11.4775 12.3194C11.3389 10.3453 10.6546 8.44853 9.50076 6.84072C9.12477 6.36421 8.67373 5.95208 8.16531 5.62051C7.64612 5.32568 7.08099 5.12035 6.49363 5.01312C4.6101 4.76257 2.69486 5.08824 1 5.94726Z" stroke="#3B3A3A" stroke-width="1.5" stroke-linecap="round" stroke-linejoin="round"/>
<path d="M12.2289 2.48994C12.2289 2.07572 11.8931 1.73994 11.4789 1.73994C11.0647 1.73994 10.7289 2.07572 10.7289 2.48994H12.2289ZM10.7289 8.02153C10.7289 8.43574 11.0647 8.77153 11.4789 8.77153C11.8931 8.77153 12.2289 8.43574 12.2289 8.02153H10.7289ZM10.7289 23.0139C10.7289 23.4281 11.0647 23.7639 11.4789 23.7639C11.8931 23.7639 12.2289 23.4281 12.2289 23.0139H10.7289ZM12.2289 8.02164C12.2289 7.60742 11.8931 7.27164 11.4789 7.27164C11.0647 7.27164 10.7289 7.60742 10.7289 8.02164H12.2289ZM11.5724 9.59171C11.1615 9.54002 10.7864 9.83128 10.7347 10.2423C10.683 10.6532 10.9743 11.0283 11.3853 11.08L11.5724 9.59171ZM16.6729 9.45595L17.0063 10.1277C17.0143 10.1238 17.0222 10.1197 17.0301 10.1154L16.6729 9.45595ZM18.0937 8.3903L18.6268 8.91789C18.6358 8.90873 18.6447 8.89935 18.6532 8.88974L18.0937 8.3903ZM19.0983 6.87996L19.7752 7.20295C19.7787 7.1957 19.782 7.1884 19.7853 7.18105L19.0983 6.87996ZM19.9322 1.37277L20.6774 1.28852C20.6385 0.944254 20.3688 0.671451 20.025 0.628546L19.9322 1.37277ZM14.7382 2.2581L14.404 1.58666C14.3962 1.59052 14.3885 1.59451 14.3809 1.59864L14.7382 2.2581ZM13.3173 3.32374L12.7842 2.79616C12.7753 2.80514 12.7667 2.81434 12.7583 2.82376L13.3173 3.32374ZM12.3127 4.83002L11.6362 4.50599L11.6327 4.51349L12.3127 4.83002ZM10.7323 7.96563C10.7014 8.37869 11.0112 8.73857 11.4243 8.76944C11.8374 8.80032 12.1972 8.49049 12.2281 8.07743L10.7323 7.96563ZM10.7289 2.48994V8.02153H12.2289V2.48994H10.7289ZM12.2289 23.0139V8.02164H10.7289V23.0139H12.2289ZM11.3853 11.08C13.3118 11.3223 15.2671 10.9911 17.0063 10.1277L16.3394 8.78416C14.8644 9.51631 13.2063 9.79721 11.5724 9.59171L11.3853 11.08ZM17.0301 10.1154C17.6182 9.79681 18.1562 9.39331 18.6268 8.91789L17.5607 7.86272C17.1938 8.23343 16.7742 8.54806 16.3156 8.79648L17.0301 10.1154ZM18.6532 8.88974C19.1052 8.38342 19.483 7.81548 19.7752 7.20295L18.4215 6.55698C18.1903 7.04136 17.8916 7.49047 17.5342 7.89086L18.6532 8.88974ZM19.7853 7.18105C20.5967 5.32981 20.9045 3.29699 20.6774 1.28852L19.1869 1.45703C19.3843 3.20281 19.1167 4.96975 18.4114 6.57887L19.7853 7.18105ZM20.025 0.628546C18.0979 0.388041 16.1426 0.72132 14.404 1.58666L15.0723 2.92953C16.5468 2.19568 18.205 1.91304 19.8393 2.117L20.025 0.628546ZM14.3809 1.59864C13.7928 1.91723 13.2548 2.32074 12.7842 2.79616L13.8504 3.85133C14.2173 3.48062 14.6368 3.16599 15.0954 2.91756L14.3809 1.59864ZM12.7583 2.82376C12.3067 3.32869 11.9289 3.89507 11.6363 4.50601L12.9891 5.15403C13.2205 4.6709 13.5192 4.22302 13.8763 3.82373L12.7583 2.82376ZM11.6327 4.51349C11.1267 5.60044 10.8217 6.77001 10.7323 7.96563L12.2281 8.07743C12.304 7.06234 12.563 6.06937 12.9926 5.14655L11.6327 4.51349Z" fill="#3B3A3A"/>
</svg>
