<svg width="21" height="21" viewBox="0 0 21 21" fill="none" xmlns="http://www.w3.org/2000/svg">
<path d="M1 5.67857C0.585786 5.67857 0.25 6.01436 0.25 6.42857C0.25 6.84278 0.585786 7.17857 1 7.17857V5.67857ZM5.07143 7.17857C5.48564 7.17857 5.82143 6.84278 5.82143 6.42857C5.82143 6.01436 5.48564 5.67857 5.07143 5.67857V7.17857ZM7.78571 5.67857C7.3715 5.67857 7.03571 6.01436 7.03571 6.42857C7.03571 6.84278 7.3715 7.17857 7.78571 7.17857V5.67857ZM15.9286 7.17857C16.3428 7.17857 16.6786 6.84278 16.6786 6.42857C16.6786 6.01436 16.3428 5.67857 15.9286 5.67857V7.17857ZM10.5 9.75C10.0858 9.75 9.75 10.0858 9.75 10.5C9.75 10.9142 10.0858 11.25 10.5 11.25V9.75ZM15.9286 11.25C16.3428 11.25 16.6786 10.9142 16.6786 10.5C16.6786 10.0858 16.3428 9.75 15.9286 9.75V11.25ZM13.2143 13.8214C12.8001 13.8214 12.4643 14.1572 12.4643 14.5714C12.4643 14.9856 12.8001 15.3214 13.2143 15.3214V13.8214ZM15.9286 15.3214C16.3428 15.3214 16.6786 14.9856 16.6786 14.5714C16.6786 14.1572 16.3428 13.8214 15.9286 13.8214V15.3214ZM1 9.75C0.585786 9.75 0.25 10.0858 0.25 10.5C0.25 10.9142 0.585786 11.25 1 11.25V9.75ZM5.07143 11.25C5.48564 11.25 5.82143 10.9142 5.82143 10.5C5.82143 10.0858 5.48564 9.75 5.07143 9.75V11.25ZM1 13.8214C0.585786 13.8214 0.25 14.1572 0.25 14.5714C0.25 14.9856 0.585786 15.3214 1 15.3214V13.8214ZM5.07143 15.3214C5.48564 15.3214 5.82143 14.9856 5.82143 14.5714C5.82143 14.1572 5.48564 13.8214 5.07143 13.8214V15.3214ZM1 7.17857H5.07143V5.67857H1V7.17857ZM7.78571 7.17857H15.9286V5.67857H7.78571V7.17857ZM10.5 11.25H15.9286V9.75H10.5V11.25ZM13.2143 15.3214H15.9286V13.8214H13.2143V15.3214ZM1 11.25H5.07143V9.75H1V11.25ZM1 15.3214H5.07143V13.8214H1V15.3214ZM4.46429 17.2857V3.71429H2.96429V17.2857H4.46429ZM4.46429 3.71429C4.46429 2.62944 5.34373 1.75 6.42857 1.75V0.25C4.5153 0.25 2.96429 1.80101 2.96429 3.71429H4.46429ZM6.42857 1.75H17.2857V0.25H6.42857V1.75ZM17.2857 1.75C18.3706 1.75 19.25 2.62944 19.25 3.71429H20.75C20.75 1.80101 19.199 0.25 17.2857 0.25V1.75ZM19.25 3.71429V17.2857H20.75V3.71429H19.25ZM19.25 17.2857C19.25 18.3706 18.3706 19.25 17.2857 19.25V20.75C19.199 20.75 20.75 19.199 20.75 17.2857H19.25ZM17.2857 19.25H6.42857V20.75H17.2857V19.25ZM6.42857 19.25C5.34373 19.25 4.46429 18.3706 4.46429 17.2857H2.96429C2.96429 19.199 4.5153 20.75 6.42857 20.75V19.25Z" fill="#3B3A3A"/>
</svg>
