<svg width="31" height="19" viewBox="0 0 31 19" fill="none" xmlns="http://www.w3.org/2000/svg">
<path d="M21.625 0.25C21.2108 0.25 20.875 0.585786 20.875 1C20.875 1.41421 21.2108 1.75 21.625 1.75V0.25ZM29.875 1.75C30.2892 1.75 30.625 1.41421 30.625 1C30.625 0.585786 30.2892 0.25 29.875 0.25V1.75ZM30.625 1C30.625 0.585786 30.2892 0.25 29.875 0.25C29.4608 0.25 29.125 0.585786 29.125 1H30.625ZM29.125 9.25C29.125 9.66421 29.4608 10 29.875 10C30.2892 10 30.625 9.66421 30.625 9.25H29.125ZM30.4053 1.53033C30.6982 1.23744 30.6982 0.762563 30.4053 0.46967C30.1124 0.176777 29.6376 0.176777 29.3447 0.46967L30.4053 1.53033ZM15.4375 15.4375L14.9072 15.9678C15.2001 16.2607 15.6749 16.2607 15.9678 15.9678L15.4375 15.4375ZM9.25 9.25L9.78033 8.71967C9.48744 8.42678 9.01256 8.42678 8.71967 8.71967L9.25 9.25ZM0.46967 16.9697C0.176777 17.2626 0.176777 17.7374 0.46967 18.0303C0.762563 18.3232 1.23744 18.3232 1.53033 18.0303L0.46967 16.9697ZM21.625 1.75H29.875V0.25H21.625V1.75ZM29.125 1V9.25H30.625V1H29.125ZM29.3447 0.46967L14.9072 14.9072L15.9678 15.9678L30.4053 1.53033L29.3447 0.46967ZM15.9678 14.9072L9.78033 8.71967L8.71967 9.78033L14.9072 15.9678L15.9678 14.9072ZM8.71967 8.71967L0.46967 16.9697L1.53033 18.0303L9.78033 9.78033L8.71967 8.71967Z" fill="#3B3A3A"/>
</svg>
